# xmcd CD database file
#
# Track frame offsets:
#	150
#	35696
#	64684
#	94410
#	128899
#	143871
#	169310
#	193193
#
# Disc length: 3037 seconds
#
# Revision: 1
# Processed by: cddbd v1.5.2PL0 Copyright (c) Steve Scherf et al.
# Submitted via: CDex 1.70beta3
#
DISCID=790bdb08
DTITLE=Kondo Toshinori - 「喇叭富士」 ～Loves Fuji～
DYEAR=2018
DGENRE=Jazz
TTITLE0=友情
TTITLE1=宙情
TTITLE2=秋彩
TTITLE3=小さな星の唄
TTITLE4=波雪
TTITLE5=霞ヲ泳グ
TTITLE6=初光
TTITLE7=富士借響
EXTD=YEAR: 2018
EXTT0=
EXTT1=
EXTT2=
EXTT3=
EXTT4=
EXTT5=
EXTT6=
EXTT7=
PLAYORDER=
